<svg width="24" height="24" viewBox="0 0 24 24" fill="none" xmlns="http://www.w3.org/2000/svg">
<rect width="24" height="24" fill="white" style="mix-blend-mode:multiply"/>
<path d="M20.9321 13.4102C21.0078 12.944 21.0454 12.4724 21.0446 12.0002C21.0446 9.60129 20.0917 7.30066 18.3954 5.60439C16.6992 3.90813 14.3985 2.95517 11.9996 2.95517C11.5274 2.95444 11.0558 2.99207 10.5896 3.06768C9.5442 2.44143 8.3195 2.18241 7.11002 2.33174C5.90054 2.48107 4.77563 3.0302 3.9139 3.89193C3.05218 4.75365 2.50305 5.87857 2.35371 7.08805C2.20438 8.29753 2.4634 9.52223 3.08965 10.5677C3.00527 11.0406 2.96012 11.5198 2.95465 12.0002C2.95465 14.3991 3.9076 16.6997 5.60387 18.396C7.30013 20.0922 9.60076 21.0452 11.9996 21.0452C12.4719 21.0459 12.9435 21.0083 13.4096 20.9327C14.4551 21.5589 15.6798 21.8179 16.8893 21.6686C18.0987 21.5193 19.2237 20.9701 20.0854 20.1084C20.9471 19.2467 21.4962 18.1218 21.6456 16.9123C21.7949 15.7028 21.5359 14.4781 20.9096 13.4327L20.9321 13.4102ZM16.2971 16.1102C15.8738 16.6955 15.2904 17.146 14.6171 17.4077C13.7864 17.7337 12.8993 17.8917 12.0071 17.8727C10.9687 17.9161 9.93554 17.7023 8.99965 17.2502C8.45401 16.9569 7.9861 16.5378 7.63465 16.0277C7.31271 15.5919 7.12974 15.0691 7.10965 14.5277C7.10886 14.3872 7.13709 14.2481 7.19259 14.119C7.24808 13.9899 7.32964 13.8737 7.43215 13.7777C7.65931 13.5843 7.95174 13.4851 8.24965 13.5002C8.49861 13.4955 8.74092 13.5807 8.93215 13.7402C9.14146 13.936 9.3031 14.1772 9.40465 14.4452C9.53477 14.7584 9.70088 15.0554 9.89965 15.3302C10.0977 15.5839 10.3554 15.7848 10.6496 15.9152C11.0494 16.0867 11.4826 16.1661 11.9171 16.1477C12.5361 16.1777 13.1492 16.0152 13.6721 15.6827C13.8728 15.5651 14.0397 15.3977 14.1567 15.1966C14.2736 14.9956 14.3367 14.7677 14.3396 14.5352C14.3461 14.3723 14.3181 14.2099 14.2573 14.0587C14.1966 13.9075 14.1045 13.7708 13.9871 13.6577C13.7201 13.4116 13.399 13.2318 13.0496 13.1327C12.6596 13.0052 12.1421 12.8777 11.4896 12.7352C10.7403 12.5607 10.0094 12.3146 9.30715 12.0002C8.75457 11.7737 8.26732 11.4128 7.88965 10.9502C7.53144 10.4734 7.34628 9.88877 7.36465 9.29268C7.35859 8.68668 7.55379 8.0958 7.91965 7.61267C8.33754 7.09349 8.89405 6.7034 9.52465 6.48767C10.322 6.22284 11.1599 6.10096 11.9996 6.12768C12.6567 6.11605 13.3117 6.20457 13.9421 6.39018C14.4369 6.53708 14.9016 6.77071 15.3146 7.08017C15.6397 7.3243 15.9104 7.63334 16.1096 7.98767C16.2718 8.2739 16.3595 8.59626 16.3646 8.92518C16.3637 9.06539 16.3347 9.20399 16.2793 9.3328C16.2239 9.46161 16.1433 9.57803 16.0421 9.67518C15.9401 9.78577 15.8159 9.87364 15.6776 9.93308C15.5394 9.99252 15.3901 10.0222 15.2396 10.0202C14.9984 10.0389 14.7592 9.9637 14.5721 9.81018C14.3753 9.62055 14.2107 9.40017 14.0846 9.15768C13.8989 8.77542 13.6298 8.43969 13.2971 8.17517C12.8606 7.90304 12.3468 7.78183 11.8346 7.83017C11.309 7.80801 10.7881 7.93824 10.3346 8.20517C10.1699 8.29312 10.0309 8.42227 9.93096 8.58C9.83106 8.73774 9.77376 8.91869 9.76465 9.10518C9.75871 9.30894 9.82514 9.50822 9.95215 9.66768C10.1017 9.84099 10.2856 9.98144 10.4921 10.0802C10.7121 10.194 10.9434 10.2845 11.1821 10.3502C11.4221 10.4177 11.8121 10.5152 12.3596 10.6427C13.0496 10.7927 13.6646 10.9577 14.2271 11.1377C14.7303 11.291 15.2098 11.5131 15.6521 11.7977C16.038 12.0417 16.3554 12.3798 16.5746 12.7802C16.7975 13.2369 16.9008 13.7427 16.8746 14.2502C16.8814 14.9153 16.6794 15.5658 16.2971 16.1102Z" fill="white"/>
</svg>
